<!DOCTYPE svg PUBLIC "-//W3C//DTD SVG 1.1//EN" "http://www.w3.org/Graphics/SVG/1.1/DTD/svg11.dtd">

<!-- Uploaded to: SVG Repo, www.svgrepo.com, Transformed by: SVG Repo Mixer Tools -->
<svg fill="#000000" height="800px" width="800px" version="1.1" id="Capa_1" xmlns="http://www.w3.org/2000/svg" xmlns:xlink="http://www.w3.org/1999/xlink" viewBox="-492.9 -492.9 1478.70 1478.70" xml:space="preserve" transform="rotate(0)">

<g id="SVGRepo_bgCarrier" stroke-width="0"/>

<g id="SVGRepo_tracerCarrier" stroke-linecap="round" stroke-linejoin="round"/>

<g id="SVGRepo_iconCarrier"> <path d="M492.896,177.553c0-65.309-53.132-118.44-118.441-118.44c-58.388,0-107.038,42.47-116.693,98.141H7.5 c-4.142,0-7.5,3.357-7.5,7.5v25.6c0,4.143,3.358,7.5,7.5,7.5h250.262c1.003,5.784,2.428,11.424,4.24,16.89 c0.001,0.003,0.001,0.006,0.002,0.008c0.133,0.538,13.537,54.416,33.205,107.559c27.763,75.012,53.655,111.475,79.16,111.475 c0.039,0,0.082,0,0.121,0c24.394-0.111,49.526-35.413,76.833-107.924c18.538-49.225,31.589-99.043,32.711-103.371 C489.74,208.624,492.896,193.451,492.896,177.553z M374.456,74.112c57.038,0,103.441,46.403,103.441,103.44 s-46.403,103.44-103.441,103.44c-57.037,0-103.44-46.403-103.44-103.44S317.418,74.112,374.456,74.112z M15,172.253h69.615v10.6H15 V172.253z M99.615,182.853v-10.6H256.14c-0.078,1.758-0.124,3.523-0.124,5.3s0.047,3.542,0.124,5.3H99.615z M437.247,320.676 c-33.321,88.442-55.036,98.073-62.825,98.108c-0.016,0-0.031,0-0.047,0c-8.292,0-31.136-9.959-65.06-101.577 c-7.229-19.525-13.602-39.159-18.759-56.137c21.462,21.559,51.148,34.923,83.9,34.923c16.928,0,33.033-3.577,47.612-10.003 l-37.507,92.681c-1.554,3.84,0.299,8.212,4.139,9.766c0.922,0.373,1.874,0.55,2.811,0.55c2.965,0,5.774-1.771,6.955-4.688 l44.625-110.27c4.933-3.52,9.581-7.412,13.913-11.628C451.694,279.667,444.95,300.23,437.247,320.676z M374.456,271.65 c51.886,0,94.098-42.212,94.098-94.098s-42.212-94.098-94.098-94.098s-94.098,42.212-94.098,94.098S322.57,271.65,374.456,271.65z M374.456,98.455c15.831,0,30.578,4.693,42.958,12.734l-43,116.226c-1.437,3.885,0.547,8.199,4.432,9.637 c0.858,0.317,1.737,0.468,2.602,0.468c3.049,0,5.915-1.873,7.035-4.899l41.27-111.551c14.673,14.367,23.801,34.375,23.801,56.484 c0,43.614-35.483,79.098-79.098,79.098s-79.098-35.483-79.098-79.098S330.841,98.455,374.456,98.455z"/> </g>

</svg>